<svg width="1200" height="630" viewBox="0 0 680 360" xmlns="http://www.w3.org/2000/svg">
  <rect width="680" height="360" fill="#0C0A14"/>
  <rect x="0" y="0" width="4" height="360" fill="#6A1B9A"/>
  <text x="110" y="50" font-family="monospace" font-size="10" fill="#5D3A7A" letter-spacing="3">CHIRON · OPEN SOURCE</text>
  <text x="108" y="148" font-family="'Helvetica Neue', Helvetica, Arial, sans-serif" font-size="60" font-weight="800" letter-spacing="-1">
    <tspan fill="#F0EAF8">chiron</tspan><tspan fill="#9C27B0">py</tspan>
  </text>
  <text x="110" y="170" font-family="monospace" font-size="11" fill="#5D3A7A">python · endurance sports analysis</text>
  <rect x="108" y="192" width="206" height="30" rx="4" fill="#130E20" stroke="#3A2352" stroke-width="0.5"/>
  <text x="120" y="212" font-family="monospace" font-size="12">
    <tspan fill="#7DB87D">import</tspan><tspan fill="#C5A3E8"> chironpy</tspan>
  </text>
  <rect x="108" y="240" width="58" height="19" rx="9" fill="#132040"/>
  <text x="137" y="253" text-anchor="middle" font-family="monospace" font-size="9" fill="#7BA7D4">python</text>
  <rect x="174" y="240" width="80" height="19" rx="9" fill="#271140"/>
  <text x="214" y="253" text-anchor="middle" font-family="monospace" font-size="9" fill="#B07FD4">open source</text>
  <rect x="262" y="240" width="36" height="19" rx="9" fill="#1A1A1A"/>
  <text x="280" y="253" text-anchor="middle" font-family="monospace" font-size="9" fill="#505050">MIT</text>
  <line x1="326" y1="32" x2="326" y2="328" stroke="#6A1B9A" stroke-opacity="0.2" stroke-width="0.5"/>
  <line x1="360" y1="100" x2="628" y2="100" stroke="#ffffff" stroke-opacity="0.03" stroke-width="1"/>
  <line x1="360" y1="135" x2="628" y2="135" stroke="#ffffff" stroke-opacity="0.03" stroke-width="1"/>
  <line x1="360" y1="170" x2="628" y2="170" stroke="#ffffff" stroke-opacity="0.03" stroke-width="1"/>
  <line x1="360" y1="205" x2="628" y2="205" stroke="#ffffff" stroke-opacity="0.03" stroke-width="1"/>
  <line x1="360" y1="240" x2="628" y2="240" stroke="#ffffff" stroke-opacity="0.03" stroke-width="1"/>
  <line x1="357" y1="68" x2="357" y2="285" stroke="#ffffff" stroke-opacity="0.07" stroke-width="0.5"/>
  <line x1="357" y1="285" x2="630" y2="285" stroke="#ffffff" stroke-opacity="0.07" stroke-width="0.5"/>
  <text x="353" y="76" text-anchor="end" font-family="monospace" font-size="8" fill="#3D2A54">fast</text>
  <text x="353" y="288" text-anchor="end" font-family="monospace" font-size="8" fill="#3D2A54">slow</text>
  <text x="493" y="302" text-anchor="middle" font-family="monospace" font-size="8" fill="#3D2A54">time →</text>
  <polygon
    points="360,248 372,235 373,112 394,112 395,238 408,238 409,110 430,110 431,238 444,238 445,108 466,108 467,238 480,238 481,110 502,110 503,238 516,238 517,92 538,92 539,238 552,238 553,110 574,110 575,238 588,238 588,285 360,285"
    fill="#6A1B9A" fill-opacity="0.13"/>
  <polyline
    points="360,248 372,235 373,112 394,112 395,238 408,238 409,110 430,110 431,238 444,238 445,108 466,108 467,238 480,238 481,110 502,110 503,238 516,238 517,92 538,92 539,238 552,238 553,110 574,110 575,238 588,238"
    fill="none" stroke="#9C27B0" stroke-width="1.5" stroke-linejoin="round" stroke-linecap="round"/>
  <circle cx="383" cy="112" r="2.5" fill="#CE93D8"/>
  <circle cx="419" cy="110" r="2.5" fill="#CE93D8"/>
  <circle cx="455" cy="108" r="2.5" fill="#CE93D8"/>
  <circle cx="491" cy="110" r="2.5" fill="#CE93D8"/>
  <circle cx="527" cy="92" r="3" fill="#E040FB"/>
  <circle cx="563" cy="110" r="2.5" fill="#CE93D8"/>
  <text x="360" y="58" font-family="monospace" font-size="8" fill="#3D2A54" letter-spacing="1">PACE / TIME SERIES</text>
  <text x="628" y="58" text-anchor="end" font-family="monospace" font-size="8" fill="#4A2D6A">chironpy</text>
  <line x1="20" y1="330" x2="660" y2="330" stroke="#6A1B9A" stroke-opacity="0.2" stroke-width="0.5"/>
  <text x="20" y="346" font-family="monospace" font-size="9" fill="#3D2A54">release notes · chiron assistant coach</text>
  <text x="660" y="346" text-anchor="end" font-family="monospace" font-size="9" fill="#3D2A54">chironapp.com</text>
</svg>
